# xmcd
#
# Track frame offsets: 
#        150
#        14881
#        34242
#        53590
#        72040
#        89157
#        106528
#        124006
#        143965
#        158335
#        171402
#        188125
#
# Disc length: 2807 seconds
#
# Revision: 0
# Processed by: cddbd v1.5.2PL0 Copyright (c) Steve Scherf et al.
# Submitted via: ExactAudioCopy v1.0b3
#
DISCID=9f0af50c
DTITLE=Sunnysiders - Licence to Blues
DYEAR=2011
DGENRE=Blues
TTITLE0=Anything You Do
TTITLE1=Bad Dream Dance
TTITLE2=Over And Over Again
TTITLE3=On The Move
TTITLE4=Comin' Home
TTITLE5=Everynight Blues
TTITLE6=Hard Connection
TTITLE7=Licence To Blues
TTITLE8=Super Glue
TTITLE9=Thank You For The Blues
TTITLE10=Let's Get Married
TTITLE11=There Where Blues Was Born
EXTD=
EXTT0=
EXTT1=
EXTT2=
EXTT3=
EXTT4=
EXTT5=
EXTT6=
EXTT7=
EXTT8=
EXTT9=
EXTT10=
EXTT11=
PLAYORDER=
